<?xml version="1.0" encoding="utf-8"?>
<!-- Generator: Adobe Illustrator 21.1.0, SVG Export Plug-In . SVG Version: 6.00 Build 0)  -->
<svg version="1.1" id="Layer_3" xmlns="http://www.w3.org/2000/svg" xmlns:xlink="http://www.w3.org/1999/xlink" x="0px" y="0px"
	 viewBox="0 0 1280 800" style="enable-background:new 0 0 1280 800;" xml:space="preserve">
<style type="text/css">
	.st0{fill:#FFFFFF;}
	.st1{font-family:'DINCondensed-Bold';}
	.st2{font-size:166.363px;}
	.st3{letter-spacing:-3;}
</style>
<g>
	<g id="XMLID_1_">
		<g>
			<path class="st0" d="M847.4,445L472.8,823.3L0,355L374.6-23.3L847.4,445z M580.1,479.9c8,0,14.4-6.6,14.4-14.6l-0.3-66.2
				l-0.3-66.2c-0.1-8-6.6-14.4-14.6-14.4l-34.2,0.2c-8,0-14.4,6.6-14.4,14.5l0.3,66.2l0.3,66.2c0.1,8,6.6,14.4,14.6,14.4
				L580.1,479.9z M522.5,459.8l-0.3-60.3l-0.3-61.3c-39-4.9-98.8-16.9-129.8-33.9c-56.2,38.8-128.5,66.8-205.8,91.6l210.9-1
				c2-5,6.9-8.6,12.7-8.6c7.6,0,13.8,6.1,13.8,13.7c0.1,7.6-6.1,13.8-13.7,13.8c-5.7,0-10.7-3.5-12.8-8.5l-210.9,1
				c77.5,24.1,150.1,51.4,206.7,89.6C423.9,478.7,483.6,465.1,522.5,459.8z"/>
			<path d="M594.5,465.3c0,8-6.5,14.5-14.4,14.6l-34.2,0.2c-8,0-14.5-6.4-14.6-14.4l-0.3-66.2l63.2-0.3L594.5,465.3z"/>
			<path d="M593.9,333l0.3,66.2l-63.2,0.3l-0.3-66.2c0-8,6.5-14.5,14.4-14.5l34.2-0.2C587.3,318.5,593.8,325,593.9,333z"/>
			<path d="M522.2,399.5l0.3,60.3c-38.9,5.3-98.6,18.9-129.5,36.2c-56.5-38.2-129.2-65.6-206.7-89.6l210.9-1c2.1,5,7,8.5,12.8,8.5
				c7.6,0,13.7-6.2,13.7-13.8L522.2,399.5z"/>
			<path d="M521.9,338.2l0.3,61.3l-98.6,0.5c0-7.6-6.2-13.7-13.8-13.7c-5.7,0-10.6,3.6-12.7,8.6l-210.9,1
				c77.3-24.8,149.6-52.9,205.8-91.6C423.1,321.3,483,333.3,521.9,338.2z"/>
		</g>
		<g>
		</g>
	</g>
</g>
<text transform="matrix(1 0 0 1 600.0838 462.5652)" class="st1 st2 st3">HEADLINE</text>
</svg>
