<?xml version="1.0" encoding="utf-8"?>
<!-- Generator: Adobe Illustrator 21.1.0, SVG Export Plug-In . SVG Version: 6.00 Build 0)  -->
<svg version="1.1" id="Layer_3" xmlns="http://www.w3.org/2000/svg" xmlns:xlink="http://www.w3.org/1999/xlink" x="0px" y="0px"
	 viewBox="0 0 3080.3 1057.8" style="enable-background:new 0 0 3080.3 1057.8;" xml:space="preserve">
<style type="text/css">
	.st0{font-family:'DINCondensed-Bold';}
	.st1{font-size:542.4999px;}
	.st2{letter-spacing:-10;}
</style>
<g>
	<g id="XMLID_1_">
		<g>
			<path d="M1386.7,742c0.1,26-21.1,47.4-47,47.5l-111.6,0.5c-25.9,0.1-47.3-21-47.5-47l-1-215.8l206-1L1386.7,742z"/>
			<path d="M1384.7,310.4l1,215.8l-206,1l-1.1-215.8c-0.1-25.9,21.1-47.3,47-47.4l111.6-0.5C1363.1,263.3,1384.5,284.4,1384.7,310.4
				z"/>
			<path d="M1151,527.4l1,196.6c-126.9,17.4-321.6,61.6-422.4,118C545.2,717.3,308.4,628.1,55.7,549.6l687.6-3.3
				c6.7,16.4,22.9,27.8,41.6,27.7c24.8-0.1,44.8-20.3,44.6-45L1151,527.4z"/>
			<path d="M1150,327.4l1,200l-321.5,1.5c-0.1-24.8-20.3-44.7-45-44.6c-18.7,0.1-34.7,11.7-41.3,28l-687.6,3.3
				c252-80.9,487.9-172.4,671.1-298.8C827.9,272.3,1023,311.3,1150,327.4z"/>
		</g>
		<g>
		</g>
	</g>
</g>
<text transform="matrix(1 0 0 1 1404.9553 732.9321)" class="st0 st1 st2">HEADLINE</text>
</svg>
