<?xml version="1.0" encoding="utf-8"?>
<!-- Generator: Adobe Illustrator 21.1.0, SVG Export Plug-In . SVG Version: 6.00 Build 0)  -->
<svg version="1.1" id="Layer_3" xmlns="http://www.w3.org/2000/svg" xmlns:xlink="http://www.w3.org/1999/xlink" x="0px" y="0px"
	 viewBox="0 0 1280 800" style="enable-background:new 0 0 1280 800;" xml:space="preserve">
<style type="text/css">
	.st0{fill:#FFFFFF;}
</style>
<g>
	<g id="XMLID_1_">
		<g>
			<path class="st0" d="M566,1055.5L0.7,495.6L700.5-211l565.3,559.8L566,1055.5z M513.8,656c0,11.9,9.8,21.6,21.8,21.5l98.9-0.5
				l98.9-0.5c11.9-0.1,21.6-9.9,21.5-21.8l-0.2-51.1c0-11.9-9.8-21.6-21.7-21.5l-98.9,0.5l-98.9,0.5c-11.9,0.1-21.6,9.9-21.5,21.8
				L513.8,656z M543.9,569.9l90.1-0.5l91.7-0.5c7.4-58.2,25.2-147.6,50.6-194.1c-57.9-84-99.9-192.1-137-307.6l1.5,315.1
				c7.5,3,12.8,10.4,12.8,18.9c0,11.4-9.1,20.6-20.4,20.6c-11.4,0.1-20.6-9.1-20.6-20.4c0-8.6,5.2-16,12.7-19.1l-1.5-315.1
				c-36,115.8-76.9,224.3-134,308.8C515.6,422.5,535.9,511.7,543.9,569.9z"/>
			<path d="M535.6,677.5c-11.9,0-21.7-9.7-21.8-21.5l-0.2-51.1c0-11.9,9.6-21.7,21.5-21.8l98.9-0.5l0.5,94.4L535.6,677.5z"/>
			<path d="M733.4,676.5l-98.9,0.5l-0.5-94.4l98.9-0.5c11.9,0,21.7,9.7,21.7,21.5l0.2,51.1C755,666.7,745.3,676.5,733.4,676.5z"/>
			<path d="M634,569.5l-90.1,0.5c-8-58.2-28.2-147.4-54.1-193.6c57.1-84.5,98-193,134-308.8l1.5,315.1c-7.5,3.1-12.7,10.5-12.7,19.1
				c0,11.4,9.3,20.5,20.6,20.4L634,569.5z"/>
			<path d="M725.6,569l-91.7,0.5l-0.7-147.4c11.4,0,20.5-9.3,20.4-20.6c0-8.6-5.3-15.9-12.8-18.9l-1.5-315.1
				c37.1,115.5,79,223.6,137,307.6C750.9,421.4,733,510.8,725.6,569z"/>
		</g>
		<g>
		</g>
	</g>
</g>
</svg>
