<?xml version="1.0" encoding="utf-8"?>
<!-- Generator: Adobe Illustrator 21.1.0, SVG Export Plug-In . SVG Version: 6.00 Build 0)  -->
<svg version="1.1" id="Layer_3" xmlns="http://www.w3.org/2000/svg" xmlns:xlink="http://www.w3.org/1999/xlink" x="0px" y="0px"
	 viewBox="0 0 1280 800" style="enable-background:new 0 0 1280 800;" xml:space="preserve">
<style type="text/css">
	.st0{font-family:'DINCondensed-Bold';}
	.st1{font-size:166.363px;}
	.st2{letter-spacing:-3;}
</style>
<g>
	<g id="XMLID_1_">
		<g>
			<path d="M594.5,465.3c0,8-6.5,14.5-14.4,14.6l-34.2,0.2c-8,0-14.5-6.4-14.6-14.4l-0.3-66.2l63.2-0.3L594.5,465.3z"/>
			<path d="M593.9,333l0.3,66.2l-63.2,0.3l-0.3-66.2c0-8,6.5-14.5,14.4-14.5l34.2-0.2C587.3,318.5,593.8,325,593.9,333z"/>
			<path d="M522.2,399.5l0.3,60.3c-38.9,5.3-98.6,18.9-129.5,36.2c-56.5-38.2-129.2-65.6-206.7-89.6l210.9-1c2.1,5,7,8.5,12.8,8.5
				c7.6,0,13.7-6.2,13.7-13.8L522.2,399.5z"/>
			<path d="M521.9,338.2l0.3,61.3l-98.6,0.5c0-7.6-6.2-13.7-13.8-13.7c-5.7,0-10.6,3.6-12.7,8.6l-210.9,1
				c77.3-24.8,149.6-52.9,205.8-91.6C423.1,321.3,483,333.3,521.9,338.2z"/>
		</g>
		<g>
		</g>
	</g>
</g>
<text transform="matrix(1 0 0 1 600.0838 462.5652)" class="st0 st1 st2">HEADLINE</text>
</svg>
