<?xml version="1.0" encoding="utf-8"?>
<!-- Generator: Adobe Illustrator 21.1.0, SVG Export Plug-In . SVG Version: 6.00 Build 0)  -->
<svg version="1.1" id="Layer_3" xmlns="http://www.w3.org/2000/svg" xmlns:xlink="http://www.w3.org/1999/xlink" x="0px" y="0px"
	 viewBox="0 0 920.4 1417.8" style="enable-background:new 0 0 920.4 1417.8;" xml:space="preserve">
<g>
	<g id="XMLID_1_">
		<g>
			<path d="M256.7,1345.9c-25.2,0.1-45.8-20.4-45.9-45.5l-0.5-107.9c-0.1-25.1,20.3-45.7,45.5-45.9l208.7-1l1,199.2L256.7,1345.9z"
				/>
			<path d="M674.1,1343.9l-208.7,1l-1-199.2l208.7-1c25.1-0.1,45.7,20.4,45.8,45.5l0.5,107.9
				C719.7,1323.1,699.2,1343.7,674.1,1343.9z"/>
			<path d="M464.3,1118l-190.1,1c-16.8-122.8-59.5-311-114.1-408.5C280.6,532.2,366.9,303.2,442.8,58.8l3.2,664.9
				c-15.8,6.5-26.8,22.1-26.8,40.2c0.1,24,19.6,43.3,43.5,43.1L464.3,1118z"/>
			<path d="M657.7,1117l-193.4,1l-1.5-310.9c24-0.1,43.2-19.6,43.1-43.5c-0.1-18.1-11.3-33.6-27.1-40l-3.2-664.9
				c78.3,243.7,166.7,471.8,289,648.9C710.9,805.5,673.3,994.2,657.7,1117z"/>
		</g>
		<g>
		</g>
	</g>
</g>
</svg>
