<?xml version="1.0" encoding="utf-8"?>
<!-- Generator: Adobe Illustrator 21.1.0, SVG Export Plug-In . SVG Version: 6.00 Build 0)  -->
<svg version="1.1" id="Layer_3" xmlns="http://www.w3.org/2000/svg" xmlns:xlink="http://www.w3.org/1999/xlink" x="0px" y="0px"
	 viewBox="0 0 606.2 976.5" style="enable-background:new 0 0 606.2 976.5;" xml:space="preserve">
<style type="text/css">
	.st0{font-family:'DINCondensed-Bold';}
	.st1{font-size:166.363px;}
	.st2{letter-spacing:-3;}
</style>
<g>
	<g id="XMLID_1_">
		<g>
			<path d="M191.7,779.4c-13.6,0-24.8-11-24.8-24.6l-0.3-58.3c0-13.6,11-24.7,24.6-24.8l112.8-0.5l0.5,107.7L191.7,779.4z"/>
			<path d="M417.4,778.3l-112.8,0.5L304,671.1l112.8-0.6c13.6,0,24.7,11,24.8,24.6l0.3,58.3C442,767.1,430.9,778.2,417.4,778.3z"/>
			<path d="M303.9,656.2l-102.8,0.5c-9.1-66.4-32.2-168.1-61.7-220.8c65.1-96.4,111.8-220.2,152.8-352.3L294,443
				c-8.6,3.5-14.5,12-14.5,21.7c0,13,10.6,23.4,23.5,23.3L303.9,656.2z"/>
			<path d="M408.5,655.6l-104.6,0.5l-0.8-168.1c13,0,23.4-10.6,23.3-23.5c0-9.8-6.1-18.2-14.7-21.6L310,83.4
				c42.3,131.7,90.1,255.1,156.2,350.8C437.3,487.2,416.9,589.2,408.5,655.6z"/>
		</g>
		<g>
		</g>
	</g>
</g>
<text transform="matrix(1 0 0 1 72.2647 929.049)" class="st0 st1 st2">HEADLINE</text>
</svg>
