<?xml version="1.0" encoding="utf-8"?>
<!-- Generator: Adobe Illustrator 21.1.0, SVG Export Plug-In . SVG Version: 6.00 Build 0)  -->
<svg version="1.1" id="Layer_3" xmlns="http://www.w3.org/2000/svg" xmlns:xlink="http://www.w3.org/1999/xlink" x="0px" y="0px"
	 viewBox="0 0 1280 800" style="enable-background:new 0 0 1280 800;" xml:space="preserve">
<g>
	<g id="XMLID_1_">
		<g>
			<path d="M499.4,619.9c-11.2,0-20.3-9.2-20.2-20.3l0.1-47.9c0-11.1,9.2-20.2,20.3-20.2l92.6,0.3l-0.2,88.3L499.4,619.9z"/>
			<path d="M684.5,620.4l-92.6-0.3l0.2-88.3l92.6,0.2c11.1,0,20.2,9.2,20.2,20.3l-0.1,47.9C704.8,611.3,695.6,620.4,684.5,620.4z"/>
			<path d="M592.2,519.5l-84.3-0.2c-7-54.5-25.4-138.1-49.2-181.6c54-78.7,93.1-179.9,127.6-288.1l-0.8,294.9c-7,2.8-12,9.7-12,17.7
				c0,10.6,8.5,19.3,19.2,19.3L592.2,519.5z"/>
			<path d="M678,519.7l-85.8-0.2l0.4-137.9c10.6,0,19.2-8.5,19.3-19.2c0-8-4.9-14.9-11.9-17.8l0.8-294.9
				c33.9,108.3,72.4,209.8,126,288.8C702.7,381.7,685.3,465.3,678,519.7z"/>
		</g>
		<g>
		</g>
	</g>
</g>
</svg>
